<svg class="svg-icon" style="vertical-align: middle;fill: white;overflow: hidden;" viewBox="0 0 1024 1024" version="1.1" xmlns="http://www.w3.org/2000/svg"><path d="M512 65.6A448 448 0 1 1 65.6 512 448 448 0 0 1 512 65.6m0 0A448 448 0 1 0 960 512 448 448 0 0 0 512 64z" fill="white" /><path d="M896 97.6A32 32 0 0 1 928 128v768a32 32 0 0 1-32 32H128a32 32 0 0 1-32-30.4V128a32 32 0 0 1 32-32h768m0 0H128a32 32 0 0 0-32 32v768a32 32 0 0 0 32 32h768a32 32 0 0 0 32-32V128a32 32 0 0 0-32-32z" fill="white" /><path d="M864 65.6A64 64 0 0 1 928 128v768a64 64 0 0 1-64 64H160a64 64 0 0 1-62.4-64V128A64 64 0 0 1 160 65.6h704m0 0H160A64 64 0 0 0 96 128v768a64 64 0 0 0 64 64h704a64 64 0 0 0 64-64V128a64 64 0 0 0-64-64z" fill="white" /><path d="M896 97.6A64 64 0 0 1 960 160v704a64 64 0 0 1-64 64H128a64 64 0 0 1-62.4-64V160A64 64 0 0 1 128 97.6h768m0 0H128A64 64 0 0 0 64 160v704a64 64 0 0 0 64 64h768a64 64 0 0 0 64-64V160a64 64 0 0 0-64-64z" fill="white" /><path d="M960 576a256 256 0 0 1-146.24 231.36l-27.52-57.92a192 192 0 0 0 13.76-339.2V416a288 288 0 0 1-38.72 144l-55.36-32A221.76 221.76 0 0 0 736 416a224 224 0 0 0-438.72-64h6.72a240 240 0 0 1 128 37.76l-34.56 53.76a176 176 0 1 0-162.56 311.04l-24.32 58.88a239.68 239.68 0 0 1 16.96-448 288 288 0 0 1 559.36-29.12A256 256 0 0 1 960 576zM288 896h448v-64H288z m256-160a32 32 0 1 0-32 32 32 32 0 0 0 32-32z m-192 0a32 32 0 1 0-32 32 32 32 0 0 0 32-32z m112-112A48 48 0 1 0 416 672a48 48 0 0 0 48-48z m208 16a64 64 0 1 0-64 64 64 64 0 0 0 64-64z m32 64a32 32 0 1 0 32 32 32 32 0 0 0-32-32z"  /></svg>