<svg  viewBox="0 0 25 25" fill="none" xmlns="http://www.w3.org/2000/svg">
<path d="M16.112 15.728C16.112 16.016 15.812 16.332 15.212 16.676C14.62 17.012 13.92 17.18 13.112 17.18C11.968 17.18 11.016 16.724 10.256 15.812C9.49595 14.9 9.11595 13.792 9.11595 12.488C9.11595 11.184 9.49595 10.08 10.256 9.176C11.024 8.272 11.984 7.82 13.136 7.82C13.84 7.82 14.468 7.952 15.02 8.216C15.58 8.48 15.86 8.776 15.86 9.104C15.86 9.264 15.812 9.392 15.716 9.488C15.62 9.584 15.488 9.632 15.32 9.632C15.16 9.632 14.944 9.54 14.672 9.356C14.16 9.028 13.648 8.864 13.136 8.864C12.304 8.864 11.616 9.224 11.072 9.944C10.536 10.656 10.268 11.504 10.268 12.488C10.268 13.464 10.536 14.316 11.072 15.044C11.616 15.772 12.28 16.136 13.064 16.136C13.848 16.136 14.564 15.94 15.212 15.548C15.476 15.404 15.652 15.332 15.74 15.332C15.836 15.332 15.92 15.372 15.992 15.452C16.072 15.524 16.112 15.616 16.112 15.728Z" fill="rgb(253, 232, 255)"/>
<path d="M18.5007 10.0426C18.2801 10.0426 18.0893 9.99574 17.9283 9.90199C17.7682 9.80729 17.6446 9.67566 17.5575 9.5071C17.4704 9.33759 17.4268 9.1411 17.4268 8.91761C17.4268 8.69223 17.4704 8.49527 17.5575 8.3267C17.6446 8.1572 17.7682 8.02557 17.9283 7.93182C18.0893 7.83712 18.2801 7.78977 18.5007 7.78977C18.7214 7.78977 18.9117 7.83712 19.0717 7.93182C19.2327 8.02557 19.3568 8.1572 19.4439 8.3267C19.531 8.49527 19.5746 8.69223 19.5746 8.91761C19.5746 9.1411 19.531 9.33759 19.4439 9.5071C19.3568 9.67566 19.2327 9.80729 19.0717 9.90199C18.9117 9.99574 18.7214 10.0426 18.5007 10.0426ZM18.5036 9.57386C18.6039 9.57386 18.6877 9.54545 18.755 9.48864C18.8222 9.43087 18.8729 9.35227 18.907 9.25284C18.942 9.15341 18.9595 9.04025 18.9595 8.91335C18.9595 8.78646 18.942 8.6733 18.907 8.57386C18.8729 8.47443 18.8222 8.39583 18.755 8.33807C18.6877 8.2803 18.6039 8.25142 18.5036 8.25142C18.4022 8.25142 18.317 8.2803 18.2479 8.33807C18.1797 8.39583 18.1281 8.47443 18.093 8.57386C18.0589 8.6733 18.0419 8.78646 18.0419 8.91335C18.0419 9.04025 18.0589 9.15341 18.093 9.25284C18.1281 9.35227 18.1797 9.43087 18.2479 9.48864C18.317 9.54545 18.4022 9.57386 18.5036 9.57386Z" fill="rgb(253, 232, 255)"/>
</svg>
